<svg width="437" height="184" viewBox="0 0 437 184" fill="none" xmlns="http://www.w3.org/2000/svg">
<g clip-path="url(#clip0_2:4)">
<g filter="url(#filter0_b_2:4)">
<path d="M36.7188 76.9688C36.7188 67.5938 37.4922 60.7031 39.0391 56.2969C40.5859 51.8906 42.2734 48.6562 44.1016 46.5938C48.0859 42.0938 53.8984 39.8203 61.5391 39.7734C72.2266 39.8203 79.1172 44.5313 82.2109 53.9062C83.9922 59.2969 84.8828 66.4688 84.8828 75.4219V89.1328H70.6094V75.3516C70.6094 67.4297 70.1641 62.0859 69.2734 59.3203C68.4297 56.5078 67.3984 54.6563 66.1797 53.7656C64.9609 52.8281 63.4141 52.3594 61.5391 52.3594C57.6484 52.3594 54.9531 54.2109 53.4531 57.9141C52 61.5703 51.2734 67.3594 51.2734 75.2812V128.859C51.2734 138.234 51.9297 144.797 53.2422 148.547C54.6016 152.25 57.1797 154.102 60.9766 154.102C64.8203 154.102 67.375 152.227 68.6406 148.477C69.9531 144.727 70.6094 138.164 70.6094 128.789V115.078H85.0234V128.648C85.0234 141.633 83.2422 151.195 79.6797 157.336C76.1641 163.43 70 166.477 61.1875 166.477C52.375 166.477 46.0938 163.336 42.3438 157.055C38.5938 150.727 36.7188 141.211 36.7188 128.508V76.9688ZM102.672 41.25H117.227V152.977H140.078V165H102.672V41.25ZM186.414 41.25H200.898V133.219C200.898 144.797 199.07 153.234 195.414 158.531C191.805 163.828 185.523 166.477 176.57 166.477C167.617 166.477 161.289 163.828 157.586 158.531C153.883 153.234 152.031 144.797 152.031 133.219V41.25H166.586V132.867C166.586 141.117 166.914 146.062 167.57 147.703C168.273 149.297 169 150.562 169.75 151.5C171.062 153.281 173.336 154.172 176.57 154.172C179.805 154.172 182.195 153.188 183.742 151.219C185.289 149.25 186.109 146.32 186.203 142.43C186.344 138.539 186.414 135.375 186.414 132.938V41.25Z" fill="black"/>
<path d="M221.641 41.25H244C253.328 41.25 259.656 43.3828 262.984 47.6484C266.359 51.8672 268.094 59.0156 268.188 69.0938V71.7656C268.188 79.0312 267.508 84.75 266.148 88.9219C264.789 93.0938 262.352 96.1172 258.836 97.9922C266.43 101.086 270.227 111 270.227 127.734V130.336C270.086 142.711 268.211 151.594 264.602 156.984C260.992 162.328 254.734 165 245.828 165H221.641V41.25ZM255.602 125.625C255.602 117.656 254.945 112.078 253.633 108.891C252.32 105.703 249.742 104.109 245.898 104.109H236.195V153.258H245.125C249.25 153.258 252.016 151.641 253.422 148.406C254.875 145.172 255.602 139.008 255.602 129.914V125.625ZM253.773 69.3047C253.773 69.1641 253.773 69.0234 253.773 68.8828C253.773 60.6328 252.344 55.7578 249.484 54.2578C248.078 53.5078 246.039 53.1328 243.367 53.1328H236.195V92.9297H244.422C247.234 92.9297 249.227 92.4844 250.398 91.5938C251.617 90.6562 252.484 88.8281 253 86.1094C253.516 83.3906 253.773 78.9375 253.773 72.75V69.3047ZM287.875 59.5312H302.289V165H287.875V59.5312ZM287.875 36.6094H302.359V49.8281H287.875V36.6094ZM325.633 41.25H340.047V60.375H351.438V71.0625H340.047V148.055C340.047 150.773 340.68 152.484 341.945 153.188C343.211 153.844 346.422 154.172 351.578 154.172V165.633H341.664C335.008 165.633 330.672 164.438 328.656 162.047C326.641 159.609 325.633 155.367 325.633 149.32V71.0625H316V60.375H325.633V41.25ZM379.211 41.25H396.719L417.18 165H403.469L399.953 141.375H377.523L374.289 165H360.438L379.211 41.25ZM379.141 129.562H398.125L388.352 64.1719H388.141L379.141 129.562Z" fill="#C5001A"/>
</g>
<g filter="url(#filter1_b_2:4)">
<path d="M35.9165 249.378C36.0506 258.752 36.9225 265.631 38.5323 270.014C40.142 274.398 41.8756 277.608 43.733 279.644C47.7813 284.087 53.6258 286.277 61.2663 286.214C71.952 286.015 78.7746 281.206 81.7339 271.787C83.4379 266.372 84.2258 259.188 84.0978 250.236L83.9017 236.526L69.6297 236.73L69.8268 250.51C69.9401 258.431 69.5713 263.781 68.7203 266.559C67.9169 269.383 66.9122 271.249 65.7063 272.157C64.5011 273.112 62.9611 273.603 61.0863 273.63C57.196 273.685 54.4745 271.872 52.9217 268.191C51.4164 264.556 50.6072 258.778 50.4939 250.857L49.7276 197.284C49.5935 187.91 50.1558 181.339 51.4145 177.571C52.7208 173.848 55.2722 171.96 59.0687 171.906C62.912 171.851 65.4933 173.689 66.8124 177.421C68.1784 181.152 68.9284 187.704 69.0625 197.078L69.2586 210.788L83.6712 210.581L83.4771 197.013C83.2914 184.029 81.3736 174.493 77.7236 168.404C74.1212 162.362 67.9142 159.403 59.1026 159.529C50.291 159.655 44.0553 162.885 40.3955 169.22C36.7364 175.601 34.9977 185.142 35.1794 197.844L35.9165 249.378ZM102.374 284.15L116.927 283.941L115.329 172.226L138.178 171.899L138.006 159.877L100.604 160.412L102.374 284.15ZM186.107 282.952L200.59 282.745L199.275 190.785C199.109 179.208 197.161 170.798 193.429 165.554C189.744 160.309 183.426 157.751 174.474 157.879C165.521 158.007 159.232 160.746 155.605 166.095C151.978 171.444 150.247 179.907 150.413 191.484L151.728 283.444L166.281 283.235L164.971 191.628C164.853 183.379 165.11 178.429 165.743 176.779C166.423 175.176 167.132 173.9 167.868 172.952C169.155 171.152 171.416 170.229 174.65 170.182C177.884 170.136 180.288 171.086 181.863 173.033C183.438 174.979 184.3 177.897 184.449 181.786C184.646 185.674 184.761 188.837 184.796 191.274L186.107 282.952ZM221.33 282.448L243.687 282.128C253.015 281.995 259.312 279.772 262.578 275.459C265.893 271.192 267.525 264.02 267.474 253.941L267.436 251.27C267.332 244.005 266.571 238.297 265.152 234.145C263.733 229.993 261.252 227.004 257.71 225.18C265.259 221.978 268.914 212.01 268.674 195.278L268.637 192.676C268.32 180.305 266.318 171.45 262.632 166.111C258.946 160.82 252.651 158.237 243.745 158.365L219.56 158.711L221.33 282.448ZM254.081 197.596C254.195 205.564 253.619 211.151 252.352 214.357C251.085 217.563 248.53 219.193 244.687 219.248L234.985 219.387L234.282 170.244L243.21 170.116C247.335 170.057 250.123 171.634 251.576 174.848C253.075 178.061 253.89 184.215 254.02 193.307L254.081 197.596ZM253.059 253.937C253.061 254.077 253.063 254.218 253.065 254.359C253.183 262.608 251.823 267.503 248.985 269.043C247.59 269.813 245.556 270.218 242.885 270.256L235.714 270.358L235.144 230.566L243.37 230.448C246.182 230.408 248.181 230.824 249.365 231.698C250.597 232.618 251.49 234.434 252.045 237.145C252.599 239.856 252.921 244.305 253.009 250.492L253.059 253.937ZM287.296 263.221L301.709 263.015L300.201 157.557L285.788 157.763L287.296 263.221ZM287.624 286.141L302.107 285.934L301.918 272.716L287.435 272.924L287.624 286.141ZM325.312 280.961L339.724 280.755L339.451 261.632L350.84 261.469L350.688 250.782L339.298 250.945L338.197 173.961C338.158 171.242 338.766 169.523 340.022 168.801C341.278 168.127 344.484 167.753 349.64 167.679L349.476 156.22L339.563 156.361C332.907 156.457 328.589 157.714 326.607 160.133C324.627 162.599 323.68 166.855 323.766 172.901L324.886 251.151L315.254 251.289L315.407 261.975L325.038 261.838L325.312 280.961ZM378.885 280.194L396.391 279.944L415.079 155.914L401.37 156.11L398.193 179.783L375.765 180.104L372.193 156.527L358.343 156.726L378.885 280.194ZM377.551 191.892L396.534 191.62L387.696 257.144L387.485 257.147L377.551 191.892Z" fill="#CCCCCC"/>
</g>
<line x1="21.9639" y1="161.437" x2="423.964" y2="159.5" stroke="black" stroke-width="15"/>
</g>
<defs>
<filter id="filter0_b_2:4" x="32.7188" y="32.6094" width="388.461" height="137.867" filterUnits="userSpaceOnUse" color-interpolation-filters="sRGB">
<feFlood flood-opacity="0" result="BackgroundImageFix"/>
<feGaussianBlur in="BackgroundImage" stdDeviation="2"/>
<feComposite in2="SourceAlpha" operator="in" result="effect1_backgroundBlur_2:4"/>
<feBlend mode="normal" in="SourceGraphic" in2="effect1_backgroundBlur_2:4" result="shape"/>
</filter>
<filter id="filter1_b_2:4" x="30.6364" y="150.438" width="390.279" height="143.295" filterUnits="userSpaceOnUse" color-interpolation-filters="sRGB">
<feFlood flood-opacity="0" result="BackgroundImageFix"/>
<feGaussianBlur in="BackgroundImage" stdDeviation="2"/>
<feComposite in2="SourceAlpha" operator="in" result="effect1_backgroundBlur_2:4"/>
<feBlend mode="normal" in="SourceGraphic" in2="effect1_backgroundBlur_2:4" result="shape"/>
</filter>
<clipPath id="clip0_2:4">
<rect width="437" height="184" fill="white"/>
</clipPath>
</defs>
</svg>
